<?xml version="1.0" encoding="utf-8"?>
<!-- Generator: Adobe Illustrator 27.1.1, SVG Export Plug-In . SVG Version: 6.00 Build 0)  -->
<svg version="1.1" id="gaspreis" xmlns="http://www.w3.org/2000/svg" xmlns:xlink="http://www.w3.org/1999/xlink" x="0px" y="0px"
	 viewBox="0 0 125.7 79.6" style="enable-background:new 0 0 125.7 79.6;" xml:space="preserve">
<style type="text/css">
	.st0{fill:none;stroke:#FFEC3E;stroke-width:1;stroke-linecap:round;stroke-linejoin:round;}
</style>
<path class="st0" d="M0.5,68.2L1.4,71l1.2-0.2l1.7,1.2L7,66.2l1.4,3.2l1.4-1.7l1.4,2.1l1.5-1.5l0.6,1.8l2-0.5l0.8-3.1l0.4-8.6
	l0.6,7.9l1-0.6l0.5-10.5l1.1,6.3l1.1-1l0.7,4.7l1.9,3.4l0.4-1.9l1.3,1.1l0.6-4.1l0.7,3l0.7-0.8l1.2-4.2l0.8,2.8l1.1-0.5l1.8,1.2
	l0.8-1l0.4,1.8l1.5,0.4l0.6-1.4l1.2,1.7l0.8-2.8l1.7,3l1.1-2.5l1.6,1.9l0.8-2.6c0,0,0.8,2.8,1,2.5s0.8-1.4,0.8-1.4l2,2.2l1.8-2.5
	l3.4,1.5l1.7-0.5l0.9-5.4l0.8,2.3l1-0.6l1.1-4.2l1.4,0.2l2.2-6.4l0.9-4.2l1.3,3.8l0.9-3.2l0.6,3.7l2,1.3l1.2-3.9l0.6-5l1,2.6
	l1.3-2.7l2.2,1.9l1-4.8l1.4-4.2l1.1-3.6l0.7-6.6l0.5,1.4l1.1-15.6l1.8,23.4l0.6,4.8l1.1-7l1.2,5.9l1,4.3l0.9-5.9l1.1,5.7l1.4-2.2
	l1.2,2.3l0.8-6.8l0.7,6.8l1.3,5.2l0.7-2.9l0.8,3.3l1.3-1.3l0.8,3l0.7,0.9l0.7,3.9l0.8-3.5l2.4,3.2l1.4,3.3l0.7-1.1l1.9,2.2l0.7,2.9
	l1.6-4.8l0.9,1.9c0,0,1.7-3.6,1.7-3.3s1.4,1.9,1.4,1.9l0.8-3.9l1.4,2.3l1.1-3.2l0.9,2.3l1.8,1l0.2,4l1.5,1.8l0.9,4.2l1.5,1.2
	l0.7-0.1l1.2,1.2l0.6,2.3l0.5-1.1"/>
</svg>
