<?xml version="1.0" encoding="UTF-8"?><svg id="Ebene_1" xmlns="http://www.w3.org/2000/svg" viewBox="0 0 136.85 179.14"><defs><style>.cls-1{fill:none;stroke:#005e9e;stroke-linecap:round;stroke-miterlimit:10;stroke-width:2px;}</style></defs><line class="cls-1" x1="2.68" y1="88.85" x2="1.4" y2="121.26"/><line class="cls-1" x1="3.96" y1="100.2" x2="2.68" y2="88.85"/><line class="cls-1" x1="5.24" y1="109.03" x2="3.96" y2="100.2"/><line class="cls-1" x1="6.53" y1="105.07" x2="5.24" y2="109.03"/><line class="cls-1" x1="7.81" y1="95.4" x2="6.53" y2="105.07"/><line class="cls-1" x1="9.09" y1="65.11" x2="7.81" y2="95.4"/><line class="cls-1" x1="10.37" y1="42.03" x2="9.09" y2="65.11"/><line class="cls-1" x1="11.65" y1="71.94" x2="10.37" y2="42.03"/><line class="cls-1" x1="12.93" y1="61.78" x2="11.65" y2="71.94"/><line class="cls-1" x1="14.21" y1="38.02" x2="12.93" y2="61.78"/><line class="cls-1" x1="15.49" y1="33.68" x2="14.21" y2="38.02"/><line class="cls-1" x1="16.77" y1="46.92" x2="15.49" y2="33.68"/><line class="cls-1" x1="18.05" y1="32.89" x2="16.77" y2="46.92"/><line class="cls-1" x1="19.33" y1="33.91" x2="18.05" y2="32.89"/><line class="cls-1" x1="20.61" y1="22.88" x2="19.33" y2="33.91"/><line class="cls-1" x1="21.89" y1="57.24" x2="20.61" y2="22.88"/><line class="cls-1" x1="23.17" y1="38.47" x2="21.89" y2="57.24"/><line class="cls-1" x1="24.46" y1="35.86" x2="23.17" y2="38.47"/><line class="cls-1" x1="25.74" y1="61.36" x2="24.46" y2="35.86"/><line class="cls-1" x1="27.02" y1="103.23" x2="25.74" y2="61.36"/><line class="cls-1" x1="28.3" y1="103.33" x2="27.02" y2="103.23"/><line class="cls-1" x1="29.58" y1="97.81" x2="28.3" y2="103.33"/><line class="cls-1" x1="30.86" y1="97.53" x2="29.58" y2="97.81"/><line class="cls-1" x1="32.14" y1="102.44" x2="30.86" y2="97.53"/><line class="cls-1" x1="33.42" y1="112.35" x2="32.14" y2="102.44"/><line class="cls-1" x1="34.7" y1="109.57" x2="33.42" y2="112.35"/><line class="cls-1" x1="35.98" y1="108.43" x2="34.7" y2="109.57"/><line class="cls-1" x1="37.26" y1="113.47" x2="35.98" y2="108.43"/><line class="cls-1" x1="38.54" y1="111.5" x2="37.26" y2="113.47"/><line class="cls-1" x1="39.82" y1="86.9" x2="38.54" y2="111.5"/><line class="cls-1" x1="41.11" y1="80.81" x2="39.82" y2="86.9"/><line class="cls-1" x1="42.39" y1="66.12" x2="41.11" y2="80.81"/><line class="cls-1" x1="43.67" y1="62.94" x2="42.39" y2="66.12"/><line class="cls-1" x1="44.95" y1="62.18" x2="43.67" y2="62.94"/><line class="cls-1" x1="46.23" y1="58.48" x2="44.95" y2="62.18"/><line class="cls-1" x1="47.51" y1="73.72" x2="46.23" y2="58.48"/><line class="cls-1" x1="48.79" y1="67.98" x2="47.51" y2="73.72"/><line class="cls-1" x1="50.07" y1="80.02" x2="48.79" y2="67.98"/><line class="cls-1" x1="51.35" y1="64.55" x2="50.07" y2="80.02"/><line class="cls-1" x1="52.63" y1="46.95" x2="51.35" y2="64.55"/><line class="cls-1" x1="53.91" y1="21.32" x2="52.63" y2="46.95"/><line class="cls-1" x1="55.19" y1="26.73" x2="53.91" y2="21.32"/><line class="cls-1" x1="56.47" y1="21.71" x2="55.19" y2="26.73"/><line class="cls-1" x1="57.76" y1="25.98" x2="56.47" y2="21.71"/><line class="cls-1" x1="59.04" y1="16.59" x2="57.76" y2="25.98"/><line class="cls-1" x1="60.32" y1="35.31" x2="59.04" y2="16.59"/><line class="cls-1" x1="61.6" y1="46.87" x2="60.32" y2="35.31"/><line class="cls-1" x1="62.88" y1="47.96" x2="61.6" y2="46.87"/><line class="cls-1" x1="64.16" y1="65.09" x2="62.88" y2="47.96"/><line class="cls-1" x1="65.44" y1="68.33" x2="64.16" y2="65.09"/><line class="cls-1" x1="66.72" y1="56.21" x2="65.44" y2="68.33"/><line class="cls-1" x1="68" y1="69.95" x2="66.72" y2="56.21"/><line class="cls-1" x1="69.28" y1="83.32" x2="68" y2="69.95"/><line class="cls-1" x1="70.56" y1="79" x2="69.28" y2="83.32"/><line class="cls-1" x1="71.84" y1="98.91" x2="70.56" y2="79"/><line class="cls-1" x1="73.12" y1="95.56" x2="71.84" y2="98.91"/><line class="cls-1" x1="74.41" y1="87.03" x2="73.12" y2="95.56"/><line class="cls-1" x1="75.69" y1="81.27" x2="74.41" y2="87.03"/><line class="cls-1" x1="76.97" y1="89" x2="75.69" y2="81.27"/><line class="cls-1" x1="78.25" y1="91.99" x2="76.97" y2="89"/><line class="cls-1" x1="79.53" y1="90.79" x2="78.25" y2="91.99"/><line class="cls-1" x1="80.81" y1="92.39" x2="79.53" y2="90.79"/><line class="cls-1" x1="82.09" y1="83.7" x2="80.81" y2="92.39"/><line class="cls-1" x1="83.37" y1="75.22" x2="82.09" y2="83.7"/><line class="cls-1" x1="84.65" y1="70.45" x2="83.37" y2="75.22"/><line class="cls-1" x1="85.93" y1="80.52" x2="84.65" y2="70.45"/><line class="cls-1" x1="87.21" y1="87.76" x2="85.93" y2="80.52"/><line class="cls-1" x1="88.49" y1="90.11" x2="87.21" y2="87.76"/><line class="cls-1" x1="89.77" y1="93.3" x2="88.49" y2="90.11"/><line class="cls-1" x1="91.06" y1="100.75" x2="89.77" y2="93.3"/><line class="cls-1" x1="92.34" y1="119.73" x2="91.06" y2="100.75"/><line class="cls-1" x1="93.62" y1="121.66" x2="92.34" y2="119.73"/><line class="cls-1" x1="94.9" y1="122.82" x2="93.62" y2="121.66"/><line class="cls-1" x1="96.18" y1="120.09" x2="94.9" y2="122.82"/><line class="cls-1" x1="97.46" y1="121.48" x2="96.18" y2="120.09"/><line class="cls-1" x1="98.74" y1="147.14" x2="97.46" y2="121.48"/><line class="cls-1" x1="100.02" y1="145.48" x2="98.74" y2="147.14"/><line class="cls-1" x1="101.3" y1="150.82" x2="100.02" y2="145.48"/><line class="cls-1" x1="102.58" y1="143.49" x2="101.3" y2="150.82"/><line class="cls-1" x1="103.86" y1="146.26" x2="102.58" y2="143.49"/><line class="cls-1" x1="105.14" y1="141.21" x2="103.86" y2="146.26"/><line class="cls-1" x1="106.42" y1="137.17" x2="105.14" y2="141.21"/><line class="cls-1" x1="107.71" y1="140.07" x2="106.42" y2="137.17"/><line class="cls-1" x1="108.99" y1="136.3" x2="107.71" y2="140.07"/><line class="cls-1" x1="110.27" y1="145.21" x2="108.99" y2="136.3"/><line class="cls-1" x1="111.55" y1="147.08" x2="110.27" y2="145.21"/><line class="cls-1" x1="112.83" y1="149.13" x2="111.55" y2="147.08"/><line class="cls-1" x1="114.11" y1="145.13" x2="112.83" y2="149.13"/><line class="cls-1" x1="115.39" y1="149.79" x2="114.11" y2="145.13"/><line class="cls-1" x1="116.67" y1="152.49" x2="115.39" y2="149.79"/><line class="cls-1" x1="117.95" y1="150.76" x2="116.67" y2="152.49"/><line class="cls-1" x1="119.23" y1="150.39" x2="117.95" y2="150.76"/><line class="cls-1" x1="120.51" y1="151.51" x2="119.23" y2="150.39"/><line class="cls-1" x1="121.79" y1="151.5" x2="120.51" y2="151.51"/><line class="cls-1" x1="123.07" y1="147.13" x2="121.79" y2="151.5"/><line class="cls-1" x1="124.36" y1="145.63" x2="123.07" y2="147.13"/><line class="cls-1" x1="125.64" y1="158.78" x2="124.36" y2="145.63"/><line class="cls-1" x1="126.92" y1="159.14" x2="125.64" y2="158.78"/><line class="cls-1" x1="128.2" y1="159.56" x2="126.92" y2="159.14"/><line class="cls-1" x1="129.48" y1="158" x2="128.2" y2="159.56"/><line class="cls-1" x1="130.76" y1="157.71" x2="129.48" y2="158"/><line class="cls-1" x1="132.04" y1="158.53" x2="130.76" y2="157.71"/><line class="cls-1" x1="133.32" y1="158.61" x2="132.04" y2="158.53"/><line class="cls-1" x1="134.6" y1="159.31" x2="133.32" y2="158.61"/><line class="cls-1" x1="135.88" y1="158.72" x2="134.6" y2="159.31"/></svg>