<?xml version="1.0" encoding="utf-8"?>
<!-- Generator: Adobe Illustrator 27.0.0, SVG Export Plug-In . SVG Version: 6.00 Build 0)  -->
<svg version="1.1" id="Ebene_1" xmlns="http://www.w3.org/2000/svg" xmlns:xlink="http://www.w3.org/1999/xlink" x="0px" y="0px"
	 viewBox="0 0 700 700" style="enable-background:new 0 0 700 700;" xml:space="preserve">
<style type="text/css">
	.st0{fill:#666666;}
</style>
<path class="st0" d="M268.2,332.2l-13,91.4c-0.5,3.2,0.5,6.5,2.7,9c2.2,2.5,5.3,3.8,8.5,3.8h1.4l93-11.5c2.5-0.3,4.8-1.4,6.6-3.2
	l183.8-184c13.1-12.6,20.6-29.9,20.7-48.1c0.2-18.2-7-35.6-19.8-48.5s-30.3-20-48.5-19.8c-18.2,0.2-35.5,7.6-48.1,20.7l-184,184
	C269.7,327.6,268.6,329.8,268.2,332.2L268.2,332.2z M289.9,339.1l181.3-181.4c11.5-11.2,28.1-15.5,43.5-11.3
	c15.5,4.2,27.6,16.3,31.8,31.8s-0.1,32-11.3,43.5L354,403l-74.6,9.2L289.9,339.1z"/>
<path class="st0" d="M365.9,105.1H178.3c-14.9,0-29.1,5.9-39.6,16.4s-16.4,24.7-16.4,39.6v380.8c0,14.9,5.9,29.1,16.4,39.6
	s24.7,16.4,39.6,16.4h347.2c14.9,0,29.1-5.9,39.6-16.4s16.4-24.7,16.4-39.6V313.7c0-6.2-5-11.2-11.2-11.2s-11.2,5-11.2,11.2v228.2
	c0,8.9-3.5,17.5-9.8,23.8s-14.8,9.8-23.8,9.8H178.3c-8.9,0-17.5-3.5-23.8-9.8s-9.8-14.8-9.8-23.8V161.1c0-8.9,3.5-17.5,9.8-23.8
	s14.8-9.8,23.8-9.8h187.6c6.2,0,11.2-5,11.2-11.2C377.1,110.1,372.1,105.1,365.9,105.1L365.9,105.1z"/>
</svg>
