<?xml version="1.0" encoding="UTF-8"?><svg id="Ebene_2" xmlns="http://www.w3.org/2000/svg" viewBox="0 0 147.96 133.14"><defs><style>.cls-1{stroke:#000;stroke-width:.3px;}.cls-1,.cls-2{stroke-linejoin:round;}.cls-1,.cls-2,.cls-3{fill:none;stroke-linecap:round;}.cls-2{stroke:#19529e;}.cls-2,.cls-3{stroke-width:2px;}.cls-3{stroke:#f88011;stroke-miterlimit:10;}</style></defs><g id="Beschriftung"><line class="cls-1" x1="3.71" y1="132.99" x2="3.71" y2="1"/><line class="cls-1" x1="3.71" y1="132.99" x2=".15" y2="132.99"/><line class="cls-1" x1="3.71" y1="1" x2=".15" y2="1"/><g><line class="cls-3" x1="7.6" y1="5.11" x2="3.93" y2="1"/><line class="cls-3" x1="11.26" y1="5.77" x2="7.6" y2="5.11"/><line class="cls-3" x1="14.93" y1="18.01" x2="11.26" y2="5.77"/><line class="cls-3" x1="18.6" y1="16.42" x2="14.93" y2="18.01"/><line class="cls-3" x1="22.27" y1="13.25" x2="18.6" y2="16.42"/><line class="cls-3" x1="25.93" y1="17.04" x2="22.27" y2="13.25"/><line class="cls-3" x1="29.6" y1="20.27" x2="25.93" y2="17.04"/><line class="cls-3" x1="33.27" y1="18.6" x2="29.6" y2="20.27"/><line class="cls-3" x1="36.94" y1="21.19" x2="33.27" y2="18.6"/><line class="cls-3" x1="40.6" y1="26.94" x2="36.94" y2="21.19"/><line class="cls-3" x1="44.27" y1="14.99" x2="40.6" y2="26.94"/><line class="cls-3" x1="47.94" y1="11.3" x2="44.27" y2="14.99"/><line class="cls-3" x1="51.61" y1="11.16" x2="47.94" y2="11.3"/><line class="cls-3" x1="55.27" y1="13.83" x2="51.61" y2="11.16"/><line class="cls-3" x1="58.94" y1="18.25" x2="55.27" y2="13.83"/><line class="cls-3" x1="62.61" y1="23.81" x2="58.94" y2="18.25"/><line class="cls-3" x1="66.27" y1="30.28" x2="62.61" y2="23.81"/><line class="cls-3" x1="69.94" y1="30.68" x2="66.27" y2="30.28"/><line class="cls-3" x1="73.61" y1="35.25" x2="69.94" y2="30.68"/><line class="cls-3" x1="77.28" y1="40.91" x2="73.61" y2="35.25"/><line class="cls-3" x1="80.94" y1="29.07" x2="77.28" y2="40.91"/><line class="cls-3" x1="84.61" y1="31.36" x2="80.94" y2="29.07"/><line class="cls-3" x1="88.28" y1="40.95" x2="84.61" y2="31.36"/><line class="cls-3" x1="91.95" y1="51.38" x2="88.28" y2="40.95"/><line class="cls-3" x1="95.61" y1="40.44" x2="91.95" y2="51.38"/><line class="cls-3" x1="99.28" y1="44.43" x2="95.61" y2="40.44"/><line class="cls-3" x1="102.95" y1="41.02" x2="99.28" y2="44.43"/><line class="cls-3" x1="106.62" y1="42.69" x2="102.95" y2="41.02"/><line class="cls-3" x1="110.28" y1="38.13" x2="106.62" y2="42.69"/><line class="cls-3" x1="113.95" y1="30.35" x2="110.28" y2="38.13"/><line class="cls-3" x1="117.62" y1="29.66" x2="113.95" y2="30.35"/><line class="cls-3" x1="121.29" y1="23.44" x2="117.62" y2="29.66"/><line class="cls-3" x1="124.95" y1="25.81" x2="121.29" y2="23.44"/><line class="cls-3" x1="128.62" y1="33.71" x2="124.95" y2="25.81"/><line class="cls-3" x1="132.29" y1="39.85" x2="128.62" y2="33.71"/><line class="cls-3" x1="135.96" y1="33.25" x2="132.29" y2="39.85"/><line class="cls-3" x1="139.62" y1="42.2" x2="135.96" y2="33.25"/><line class="cls-3" x1="143.29" y1="50.52" x2="139.62" y2="42.2"/><line class="cls-3" x1="146.96" y1="52.96" x2="143.29" y2="50.52"/></g><g><line class="cls-2" x1="7.6" y1="3.99" x2="3.93" y2="1"/><line class="cls-2" x1="11.26" y1="3.9" x2="7.6" y2="3.99"/><line class="cls-2" x1="14.93" y1="22.69" x2="11.26" y2="3.9"/><line class="cls-2" x1="18.6" y1="23.66" x2="14.93" y2="22.69"/><line class="cls-2" x1="22.27" y1="65.92" x2="18.6" y2="23.66"/><line class="cls-2" x1="25.93" y1="77.4" x2="22.27" y2="65.92"/><line class="cls-2" x1="29.6" y1="86.16" x2="25.93" y2="77.4"/><line class="cls-2" x1="33.27" y1="83.32" x2="29.6" y2="86.16"/><line class="cls-2" x1="36.94" y1="90.14" x2="33.27" y2="83.32"/><line class="cls-2" x1="40.6" y1="98.28" x2="36.94" y2="90.14"/><line class="cls-2" x1="44.27" y1="79.4" x2="40.6" y2="98.28"/><line class="cls-2" x1="47.94" y1="75.91" x2="44.27" y2="79.4"/><line class="cls-2" x1="51.61" y1="73.93" x2="47.94" y2="75.91"/><line class="cls-2" x1="55.27" y1="75.58" x2="51.61" y2="73.93"/><line class="cls-2" x1="58.94" y1="83.52" x2="55.27" y2="75.58"/><line class="cls-2" x1="62.61" y1="100.57" x2="58.94" y2="83.52"/><line class="cls-2" x1="66.27" y1="89.87" x2="62.61" y2="100.57"/><line class="cls-2" x1="69.94" y1="87.72" x2="66.27" y2="89.87"/><line class="cls-2" x1="73.61" y1="91.08" x2="69.94" y2="87.72"/><line class="cls-2" x1="77.28" y1="94.41" x2="73.61" y2="91.08"/><line class="cls-2" x1="80.94" y1="93.37" x2="77.28" y2="94.41"/><line class="cls-2" x1="84.61" y1="96.21" x2="80.94" y2="93.37"/><line class="cls-2" x1="88.28" y1="106.15" x2="84.61" y2="96.21"/><line class="cls-2" x1="91.95" y1="113.9" x2="88.28" y2="106.15"/><line class="cls-2" x1="95.61" y1="109.7" x2="91.95" y2="113.9"/><line class="cls-2" x1="99.28" y1="116.32" x2="95.61" y2="109.7"/><line class="cls-2" x1="102.95" y1="109.23" x2="99.28" y2="116.32"/><line class="cls-2" x1="106.62" y1="113.26" x2="102.95" y2="109.23"/><line class="cls-2" x1="110.28" y1="110.27" x2="106.62" y2="113.26"/><line class="cls-2" x1="113.95" y1="116.93" x2="110.28" y2="110.27"/><line class="cls-2" x1="117.62" y1="111.7" x2="113.95" y2="116.93"/><line class="cls-2" x1="121.29" y1="102.94" x2="117.62" y2="111.7"/><line class="cls-2" x1="124.95" y1="111.13" x2="121.29" y2="102.94"/><line class="cls-2" x1="128.62" y1="115.17" x2="124.95" y2="111.13"/><line class="cls-2" x1="132.29" y1="116.14" x2="128.62" y2="115.17"/><line class="cls-2" x1="135.96" y1="110.36" x2="132.29" y2="116.14"/><line class="cls-2" x1="139.62" y1="125.31" x2="135.96" y2="110.36"/><line class="cls-2" x1="143.29" y1="129.14" x2="139.62" y2="125.31"/><line class="cls-2" x1="146.96" y1="131.76" x2="143.29" y2="129.14"/></g></g></svg>